<svg xmlns="http://www.w3.org/2000/svg" width="48" height="48" viewBox="0 0 48 48" fill="none">
    <defs>
        <linearGradient id="tealSky" x1="0" y1="0" x2="1" y2="1">
            <stop offset="0%" stop-color="#14b8a6"/>
            <stop offset="100%" stop-color="#0ea5e9"/>
        </linearGradient>
        <radialGradient id="glow" cx="50%" cy="60%" r="70%">
            <stop offset="0%" stop-color="#fff" stop-opacity="0.35"/>
            <stop offset="100%" stop-color="#14b8a6" stop-opacity="0"/>
        </radialGradient>
        <filter id="shadow" x="-20%" y="-20%" width="140%" height="140%">
            <feDropShadow dx="0" dy="2" stdDeviation="2" flood-color="#0ea5e9" flood-opacity="0.25"/>
        </filter>
    </defs>
    <!-- Drop shadow for depth -->
    <g filter="url(#shadow)">
        <!-- Shield base with gradient outline -->
        <path d="M24 44q-.6 0-1.15-.175-.55-.175-1.05-.525Q13.7 38.2 9.85 32.7 6 27.2 6 20.85V9.7q0-1.05.625-1.825Q7.25 7.1 8.3 6.7l13.1-4.7q.6-.2 1.3-.2t1.3.2l13.1 4.7q1.05.4 1.675 1.175Q42 8.65 42 9.7v11.15q0 6.35-3.85 11.85-3.85 5.5-11.95 10.6-.5.35-1.05.525Q24.6 44 24 44Z" fill="url(#glow)" stroke="url(#tealSky)" stroke-width="4.5" stroke-linejoin="round" />
        <!-- Inner shield for highlight -->
        <path d="M24 40q-.5 0-.95-.15-.45-.15-.85-.45Q15.7 35.2 12.35 30.6 9 26 9 20.85V11.2q0-.7.425-1.225Q9.85 9.45 10.6 9.2l11.7-4.2q.35-.1.75-.1t.75.1l11.7 4.2q.75.25 1.175.775Q36 10.5 36 11.2v9.65q0 5.15-3.35 9.75-3.35 4.6-9.85 8.95-.4.3-.85.45Q24.5 40 24 40Z" fill="url(#tealSky)" opacity="0.15" />
    </g>
</svg>