<svg xmlns="http://www.w3.org/2000/svg" width="48" height="48" viewBox="0 0 48 48" fill="none">
    <defs>
        <linearGradient id="tealSky" x1="0" y1="0" x2="1" y2="1">
            <stop offset="0%" stop-color="#14b8a6"/>
            <stop offset="100%" stop-color="#0ea5e9"/>
        </linearGradient>
    </defs>
    <!-- Rounded, bold shield -->
    <path d="M24 44q-.6 0-1.15-.175-.55-.175-1.05-.525Q13.7 38.2 9.85 32.7 6 27.2 6 20.85V9.7q0-1.05.625-1.825Q7.25 7.1 8.3 6.7l13.1-4.7q.6-.2 1.3-.2t1.3.2l13.1 4.7q1.05.4 1.675 1.175Q42 8.65 42 9.7v11.15q0 6.35-3.85 11.85-3.85 5.5-11.95 10.6-.5.35-1.05.525Q24.6 44 24 44Z" fill="url(#tealSky)" stroke="url(#tealSky)" stroke-width="2" />
</svg>